<?xml version="1.0" encoding="utf-8"?>
<!-- Generator: Adobe Illustrator 24.1.2, SVG Export Plug-In . SVG Version: 6.00 Build 0)  -->
<svg version="1.1" id="Слой_1" xmlns="http://www.w3.org/2000/svg" xmlns:xlink="http://www.w3.org/1999/xlink" x="0px" y="0px"
	 viewBox="0 0 245 245" style="enable-background:new 0 0 245 245;" xml:space="preserve">
<style type="text/css">
	.st0{fill:#000089;}
	.st1{fill-rule:evenodd;clip-rule:evenodd;fill:#FFFFFF;}
	.st2{fill:#FFFFFF;}
	.st3{font-family:'Roboto-Medium';}
	.st4{font-size:20px;}
</style>
<g>
	<rect x="-0.02" y="-0.02" class="st0" width="245.04" height="245.04"/>
</g>
<path class="st1" d="M140.85,115.84c1.9,1.09,3.74,1.97,5.49,2.86v13.86c0,0.1,0.1,0.1,0.1,0.15c-3.23,0.64-5.59,3.31-5.59,6.51
	c0,3.75,3.13,6.75,6.92,6.75c3.84,0,6.92-3.01,6.92-6.75c0-2.86-1.95-5.38-4.72-6.22c0.1-0.15,0.1-0.3,0.1-0.44v-12.13
	c25.64,11.44,38.66,8.28,38.66,44.19h-65.32h-0.72H56.26c0-38.13,13.54-32.85,40.4-45.08v5.72c-8.82,1.08-15.64,8.24-15.64,16.97
	v15.74c0,1.04,0.82,1.82,1.85,1.82h6.2c1.03,0,1.85-0.79,1.85-1.82c0-0.99-0.82-1.78-1.85-1.78h-4.36v-13.96
	c0-7.5,6.41-13.61,14.26-13.61c7.79,0,14.1,6.11,14.1,13.61v13.96h-3.9c-1.08,0-1.9,0.79-1.9,1.78c0,1.04,0.82,1.82,1.9,1.82h5.79
	c1.03,0,1.85-0.79,1.85-1.82v-15.74c0-9.03-7.28-16.32-16.46-17.01v-7.4c1.28-0.69,2.67-1.33,4-2.12
	c5.54,3.65,11.79,5.67,18.41,5.67C129.27,121.36,135.42,119.39,140.85,115.84L140.85,115.84z M150.49,77.37
	c-0.82-0.59-1.59-0.34-2.05,0.59c0,0,2.66-13.81,0.61-19.73c-4.46-15.09-41.58-19.28-41.58-9.87C91.58,52.7,94.55,67.15,96.81,78.1
	c0,0-1.13-1.33-2.61-0.05c-1.69,1.78,0.2,6.02,0.82,8.04c0.46,1.58,0.97,2.66,1.38,3.41c0,0.2,0,0.39,0,0.59
	c0,1.48,0.67,2.67,1.49,2.67h0.05c3.69,13.56,14.82,24.86,24.76,24.86c9.18,0,20.56-11.29,24.2-24.86c0.77-0.1,1.38-1.23,1.38-2.67
	v-0.34c0.46-0.79,1.03-1.92,1.49-3.65C150.34,84.32,152.55,78.7,150.49,77.37L150.49,77.37z"/>
<text transform="matrix(1 0 0 1 56.3661 204.9973)" class="st2 st3 st4">НАШИ ВРАЧИ</text>
</svg>
