<?xml version="1.0" encoding="utf-8"?>
<!-- Generator: Adobe Illustrator 24.1.2, SVG Export Plug-In . SVG Version: 6.00 Build 0)  -->
<svg version="1.1" id="Слой_1" xmlns="http://www.w3.org/2000/svg" xmlns:xlink="http://www.w3.org/1999/xlink" x="0px" y="0px"
	 viewBox="0 0 245 245" style="enable-background:new 0 0 245 245;" xml:space="preserve">
<style type="text/css">
	.st0{fill:#000089;}
	.st1{fill:#FFFFFF;}
	.st2{font-family:'Roboto-Medium';}
	.st3{font-size:20px;}
</style>
<g>
	<rect x="-0.02" y="-0.02" class="st0" width="245.04" height="245.04"/>
</g>
<g>
	<path class="st1" d="M121.81,116.56c-22.71,0-41.19-18.48-41.19-41.19s18.48-41.19,41.19-41.19S163,52.66,163,75.37
		C163,98.09,144.52,116.56,121.81,116.56z M121.81,37.62c-20.82,0-37.75,16.94-37.75,37.75c0,20.82,16.94,37.75,37.75,37.75
		c20.82,0,37.75-16.94,37.75-37.75S142.63,37.62,121.81,37.62z"/>
</g>
<path class="st1" d="M140.22,69.23c0-9.87-8-17.87-17.87-17.87s-17.87,8-17.87,17.87c0,0-1.25,17.48,17.87,34.39
	C141.47,86.71,140.22,69.23,140.22,69.23z M122.36,76.77c-4.16,0-7.54-3.38-7.54-7.54s3.38-7.54,7.54-7.54s7.54,3.38,7.54,7.54
	C129.9,73.4,126.52,76.77,122.36,76.77z"/>
<text transform="matrix(1 0 0 1 41.1547 204.2844)" class="st1 st2 st3">ПР. СОБОРНЫЙ, 1</text>
<text transform="matrix(1 0 0 1 87.7913 159.3922)" class="st1 st2 st3">АДРЕС</text>
</svg>
