<?xml version="1.0" encoding="utf-8"?>
<!-- Generator: Adobe Illustrator 24.1.2, SVG Export Plug-In . SVG Version: 6.00 Build 0)  -->
<svg version="1.1" id="Слой_1" xmlns="http://www.w3.org/2000/svg" xmlns:xlink="http://www.w3.org/1999/xlink" x="0px" y="0px"
	 viewBox="0 0 245 245" style="enable-background:new 0 0 245 245;" xml:space="preserve">
<style type="text/css">
	.st0{fill:#000089;}
	.st1{fill:#FFFFFF;}
	.st2{font-family:'Roboto-Medium';}
	.st3{font-size:20px;}
</style>
<g>
	<rect x="-0.02" y="-0.02" class="st0" width="245.04" height="245.04"/>
</g>
<text transform="matrix(1 0 0 1 38.5281 142.4328)" class="st1 st2 st3">ГАРЯЧАЯ ЛИНИЯ</text>
<text transform="matrix(1 0 0 1 27.8181 179.4328)" class="st1 st2 st3">+38 (066) 666-66-66</text>
<text transform="matrix(1 0 0 1 27.8181 216.4328)" class="st1 st2 st3">+38 (077) 777-77-77</text>
<g>
	<g>
		<g>
			<path class="st1" d="M137.53,77.48c-6.77-5.44-8.66-2.77-11.74,0.31c-2.14,2.15-7.57-2.33-12.26-7.02
				c-4.69-4.69-9.17-10.11-7.02-12.26c3.07-3.07,5.75-4.97,0.3-11.74c-5.44-6.77-9.07-1.57-12.04,1.4
				c-3.44,3.43-0.18,16.23,12.47,28.89c12.65,12.65,25.3,15.68,28.88,12.47C139.26,86.72,144.3,82.92,137.53,77.48z M101.94,50.44
				c-0.09,0.04-0.23,0.09-0.4,0.16c-0.32,0.12-0.71,0.26-1.14,0.45c-0.2,0.1-0.43,0.2-0.63,0.33c-0.21,0.13-0.42,0.27-0.61,0.45
				c-0.21,0.17-0.37,0.38-0.56,0.61c-0.14,0.25-0.32,0.5-0.42,0.81c-0.14,0.29-0.19,0.62-0.28,0.95c-0.06,0.33-0.08,0.68-0.12,1.02
				c0,0.68,0.02,1.34,0.11,1.89c0.05,0.57,0.19,1.05,0.25,1.38c0.07,0.33,0.11,0.52,0.11,0.52s-0.1-0.17-0.28-0.46
				c-0.17-0.3-0.46-0.68-0.71-1.23c-0.29-0.53-0.56-1.18-0.82-1.92c-0.09-0.38-0.22-0.77-0.29-1.19c-0.05-0.43-0.13-0.86-0.1-1.33
				c-0.01-0.46,0.08-0.93,0.17-1.4c0.14-0.46,0.28-0.92,0.5-1.33c0.2-0.42,0.46-0.8,0.72-1.13c0.26-0.34,0.52-0.62,0.77-0.88
				c0.5-0.49,0.93-0.85,1.19-1.07c0.14-0.12,0.2-0.19,0.27-0.24c0.06-0.05,0.09-0.08,0.09-0.08l2.32,3.63
				C102.09,50.38,102.04,50.4,101.94,50.44z M136.79,84.94c-0.23,0.28-0.58,0.72-1.07,1.22c-0.26,0.24-0.52,0.51-0.86,0.76
				c-0.31,0.26-0.69,0.5-1.07,0.72c-0.4,0.22-0.82,0.4-1.26,0.54c-0.44,0.13-0.9,0.24-1.35,0.28l-0.67,0.05l-0.65-0.03
				c-0.43-0.01-0.82-0.12-1.21-0.18c-0.38-0.07-0.73-0.21-1.06-0.31c-0.33-0.09-0.63-0.25-0.9-0.36c-0.56-0.22-0.96-0.48-1.26-0.63
				c-0.3-0.16-0.46-0.26-0.46-0.26s0.47,0.31,0.8,0.36c0.33,0.04,0.81,0.15,1.37,0.16c0.28,0.01,0.57,0.06,0.89,0.03
				c0.32-0.02,0.65-0.01,0.98-0.07c0.33-0.07,0.67-0.08,0.98-0.2l0.47-0.15l0.44-0.21c1.16-0.56,1.79-1.55,2.16-2.38
				c0.18-0.43,0.31-0.8,0.41-1.1c0.11-0.31,0.17-0.49,0.17-0.49l3.48,1.83C137.13,84.52,137.01,84.67,136.79,84.94z"/>
		</g>
	</g>
	<g>
		<path class="st1" d="M120.59,105.64c-22.71,0-41.19-18.48-41.19-41.19s18.48-41.19,41.19-41.19s41.19,18.48,41.19,41.19
			S143.3,105.64,120.59,105.64z M120.59,26.7c-20.82,0-37.75,16.94-37.75,37.75c0,20.82,16.94,37.75,37.75,37.75
			c20.82,0,37.75-16.94,37.75-37.75C158.34,43.63,141.41,26.7,120.59,26.7z"/>
	</g>
	<g>
		<g>
			<path class="st1" d="M122.24,55.98c-0.52-0.25-1.03-0.47-1.53-0.66l-1.26,3.23c0.42,0.16,0.85,0.34,1.28,0.55
				c3.73,1.8,6.31,4.76,7.71,8.81l3.11-1.6C129.41,60.57,125.48,57.55,122.24,55.98z"/>
			<path class="st1" d="M132.13,43.76c-2.22-1.07-4.37-1.68-6.13-2.03L124.73,45c4.78,0.8,14.03,3.95,16.5,16.35l3.19-1.64
				C142.28,50.46,136.66,45.94,132.13,43.76z"/>
			<path class="st1" d="M127.83,50.39c-1.64-0.79-3.23-1.28-4.58-1.58l-1.28,3.28c1.22,0.24,2.76,0.66,4.35,1.43
				c4.43,2.13,7.23,5.9,8.37,11.19l3.18-1.64C136.02,55.77,131.49,52.16,127.83,50.39z"/>
		</g>
	</g>
</g>
</svg>
