<?xml version="1.0" encoding="utf-8"?>
<!-- Generator: Adobe Illustrator 24.1.2, SVG Export Plug-In . SVG Version: 6.00 Build 0)  -->
<svg version="1.1" id="Слой_1" xmlns="http://www.w3.org/2000/svg" xmlns:xlink="http://www.w3.org/1999/xlink" x="0px" y="0px"
	 viewBox="0 0 245 245" style="enable-background:new 0 0 245 245;" xml:space="preserve">
<style type="text/css">
	.st0{fill:#000089;}
	.st1{fill:#FFFFFF;}
	.st2{font-family:'Roboto-Medium';}
	.st3{font-size:20px;}
	.st4{font-size:11.66px;}
	.st5{fill:#FFFFFF;fill-opacity:0;}
</style>
<g>
	<rect x="-0.02" y="-0.02" class="st0" width="245.04" height="245.04"/>
</g>
<text transform="matrix(1 0 0 1 64.7351 138.2795)" class="st1 st2 st3">БУДНИЕ ДНИ</text>
<text transform="matrix(1 0 0 1 87.1404 163.2795)" class="st1 st2 st3">8</text>
<text transform="matrix(1 0 0 1 98.5078 156.6191)" class="st1 st2 st4">00</text>
<text transform="matrix(1 0 0 1 111.7615 163.2795)" class="st1 st2 st3"> – 20</text>
<text transform="matrix(1 0 0 1 157.3574 156.6191)" class="st1 st2 st4">00</text>
<text transform="matrix(1 0 0 1 45.3552 191.0129)" class="st1 st2 st3">ВЫХОДНЫЕ ДНИ</text>
<text transform="matrix(1 0 0 1 86.113 216.0129)" class="st1 st2 st3">9</text>
<text transform="matrix(1 0 0 1 97.4805 209.3525)" class="st1 st2 st4">00 </text>
<text transform="matrix(1 0 0 1 113.6384 216.0129)" class="st1 st2 st3">– 18</text>
<text transform="matrix(1 0 0 1 154.2539 209.3525)" class="st1 st2 st4">00</text>
<path class="st1" d="M84.47,99.28c0,1.4,0.53,2.77,1.46,3.76c0.93,0.99,2.21,1.56,3.53,1.56h0.63h2.66h67.22
	c1.31,0,2.6-0.57,3.53-1.56s1.46-2.36,1.46-3.76V55.27H84.47V99.28z M126.41,89.57c0.03-0.33,0.08-0.6,0.16-0.8
	c0.07-0.2,0.15-0.35,0.25-0.43s0.21-0.13,0.34-0.13c0.16,0,0.4,0.1,0.73,0.29c0.33,0.2,0.76,0.41,1.29,0.65s1.18,0.45,1.95,0.65
	c0.76,0.2,1.68,0.29,2.75,0.29c0.93,0,1.77-0.1,2.52-0.31c0.76-0.2,1.4-0.53,1.92-0.98c0.53-0.45,0.93-1.02,1.22-1.7
	c0.29-0.68,0.43-1.5,0.43-2.45c0-0.82-0.12-1.54-0.36-2.18s-0.61-1.18-1.12-1.62s-1.17-0.77-1.99-0.99
	c-0.81-0.22-1.8-0.33-2.97-0.33c-0.92,0-1.76,0.05-2.52,0.15c-0.76,0.1-1.47,0.15-2.14,0.15c-0.46,0-0.79-0.12-0.99-0.37
	c-0.2-0.25-0.3-0.7-0.3-1.36V63.78c0-0.68,0.12-1.17,0.37-1.47c0.25-0.3,0.64-0.45,1.18-0.45h14.66c0.14,0,0.28,0.05,0.41,0.15
	c0.13,0.1,0.23,0.26,0.32,0.48c0.09,0.22,0.15,0.51,0.19,0.88c0.04,0.36,0.06,0.8,0.06,1.31c0,1.02-0.08,1.76-0.25,2.22
	s-0.41,0.69-0.73,0.69h-11v7.06c0.56-0.07,1.11-0.11,1.66-0.13s1.13-0.03,1.73-0.03c1.67,0,3.16,0.21,4.46,0.62
	c1.3,0.42,2.39,1.03,3.28,1.84s1.56,1.81,2.02,3.01c0.46,1.2,0.69,2.59,0.69,4.17c0,1.79-0.29,3.38-0.87,4.78s-1.4,2.58-2.46,3.54
	c-1.06,0.96-2.34,1.7-3.83,2.21s-3.15,0.76-4.96,0.76c-0.96,0-1.86-0.06-2.72-0.19c-0.86-0.13-1.63-0.29-2.32-0.48
	c-0.69-0.2-1.25-0.39-1.69-0.59s-0.72-0.36-0.86-0.49s-0.24-0.27-0.3-0.42c-0.07-0.15-0.11-0.34-0.15-0.55
	c-0.04-0.21-0.07-0.48-0.09-0.8c-0.01-0.32-0.02-0.7-0.02-1.15C126.36,90.31,126.37,89.9,126.41,89.57z M102.8,68.08
	c0.02-0.26,0.06-0.49,0.12-0.68c0.06-0.19,0.15-0.34,0.26-0.46s0.26-0.25,0.45-0.38l6.65-4.59c0.08-0.07,0.18-0.12,0.3-0.17
	c0.12-0.04,0.27-0.08,0.47-0.1c0.19-0.02,0.44-0.04,0.75-0.05s0.71-0.01,1.21-0.01c0.61,0,1.09,0.01,1.47,0.04
	c0.38,0.02,0.66,0.07,0.85,0.13c0.19,0.06,0.32,0.14,0.38,0.24c0.06,0.1,0.09,0.23,0.09,0.38v27.25h5.05c0.14,0,0.27,0.05,0.39,0.14
	s0.22,0.24,0.31,0.45c0.09,0.2,0.15,0.47,0.19,0.8s0.06,0.74,0.06,1.24c0,0.47-0.02,0.88-0.07,1.21s-0.12,0.59-0.2,0.79
	c-0.09,0.2-0.19,0.34-0.3,0.42s-0.24,0.13-0.38,0.13h-17.08c-0.12,0-0.24-0.04-0.36-0.13c-0.11-0.08-0.21-0.22-0.3-0.42
	c-0.09-0.2-0.15-0.46-0.2-0.79c-0.05-0.33-0.07-0.74-0.07-1.21c0-0.49,0.02-0.91,0.06-1.24c0.04-0.33,0.1-0.6,0.19-0.8
	c0.09-0.2,0.18-0.35,0.3-0.45c0.11-0.09,0.24-0.14,0.38-0.14h5.77V68.22l-4.97,2.93c-0.37,0.19-0.66,0.3-0.9,0.34
	c-0.23,0.04-0.41-0.01-0.55-0.15c-0.13-0.14-0.23-0.39-0.28-0.75c-0.05-0.36-0.07-0.86-0.07-1.5
	C102.78,68.68,102.79,68.34,102.8,68.08z"/>
<path class="st1" d="M92.74,39.36h-2.66h-0.63c-1.31,0-2.6,0.53-3.53,1.46s-1.46,2.21-1.46,3.53v5.8h80.48v-5.8
	c0-1.31-0.53-2.6-1.46-3.53c-0.93-0.93-2.21-1.46-3.53-1.46h-8.47v6.53c0,1.22-0.99,2.21-2.21,2.21h-4.65
	c-1.22,0-2.21-0.99-2.21-2.21v-6.53H107v6.53c0,1.22-0.99,2.21-2.21,2.21h-4.65c-1.22,0-2.21-0.99-2.21-2.21v-6.53H92.74z"/>
<rect x="84.47" y="50.15" class="st5" width="80.48" height="3.42"/>
<path class="st5" d="M103.78,90.61c-0.14,0-0.27,0.04-0.38,0.13s-0.21,0.23-0.3,0.42c-0.09,0.19-0.15,0.44-0.19,0.75
	s-0.06,0.7-0.06,1.16c0,0.45,0.03,0.82,0.07,1.14c0.05,0.31,0.12,0.56,0.2,0.74c0.09,0.18,0.19,0.31,0.3,0.39s0.23,0.12,0.36,0.12
	h17.08c0.14,0,0.27-0.04,0.38-0.12s0.21-0.21,0.3-0.39c0.09-0.18,0.16-0.43,0.2-0.74c0.05-0.31,0.07-0.69,0.07-1.14
	c0-0.46-0.02-0.85-0.06-1.16c-0.04-0.31-0.1-0.56-0.19-0.75c-0.08-0.19-0.19-0.33-0.31-0.42c-0.12-0.09-0.25-0.13-0.39-0.13h-5.05
	V65.04c0-0.14-0.03-0.26-0.09-0.36s-0.19-0.17-0.38-0.23c-0.19-0.06-0.47-0.1-0.85-0.12c-0.37-0.02-0.86-0.04-1.47-0.04
	c-0.5,0-0.9,0-1.21,0.01s-0.56,0.02-0.75,0.05c-0.19,0.02-0.35,0.06-0.47,0.1s-0.22,0.09-0.3,0.16l-6.65,4.3
	c-0.19,0.13-0.34,0.25-0.45,0.36s-0.2,0.26-0.26,0.43c-0.06,0.18-0.1,0.39-0.12,0.63c-0.01,0.25-0.02,0.56-0.02,0.94
	c0,0.61,0.02,1.08,0.07,1.41s0.14,0.57,0.28,0.7c0.13,0.14,0.32,0.18,0.55,0.14s0.53-0.15,0.9-0.32l4.97-2.75v20.14h-5.78V90.61z"/>
<path class="st5" d="M138.32,89.79c-0.53,0.42-1.17,0.73-1.92,0.92c-0.76,0.19-1.6,0.29-2.52,0.29c-1.07,0-1.99-0.09-2.75-0.27
	c-0.77-0.18-1.42-0.39-1.95-0.61c-0.54-0.22-0.97-0.43-1.29-0.61c-0.33-0.18-0.57-0.27-0.73-0.27c-0.13,0-0.24,0.04-0.34,0.12
	c-0.09,0.08-0.18,0.22-0.25,0.41s-0.13,0.44-0.16,0.75c-0.03,0.31-0.05,0.69-0.05,1.14c0,0.41,0.01,0.77,0.02,1.08
	c0.02,0.3,0.05,0.56,0.09,0.75c0.04,0.2,0.09,0.37,0.15,0.51c0.06,0.14,0.16,0.28,0.3,0.39c0.13,0.12,0.42,0.27,0.86,0.46
	c0.44,0.18,1,0.37,1.69,0.55c0.68,0.18,1.46,0.33,2.32,0.45c0.86,0.12,1.77,0.18,2.72,0.18c1.82,0,3.47-0.24,4.96-0.72
	s2.77-1.17,3.83-2.07s1.88-2.01,2.46-3.32c0.58-1.32,0.87-2.81,0.87-4.49c0-1.48-0.23-2.79-0.69-3.91
	c-0.46-1.13-1.13-2.07-2.02-2.82c-0.88-0.76-1.98-1.33-3.28-1.72s-2.79-0.59-4.46-0.59c-0.61,0-1.18,0.01-1.73,0.03
	s-1.11,0.06-1.66,0.12V69.9h11c0.32,0,0.56-0.22,0.73-0.65s0.25-1.12,0.25-2.08c0-0.48-0.02-0.89-0.06-1.23
	c-0.04-0.34-0.1-0.62-0.19-0.83s-0.2-0.36-0.32-0.45c-0.13-0.1-0.26-0.14-0.41-0.14h-14.66c-0.54,0-0.94,0.14-1.18,0.42
	c-0.25,0.28-0.37,0.74-0.37,1.38v13.44c0,0.62,0.1,1.05,0.3,1.28c0.2,0.23,0.53,0.35,0.99,0.35c0.67,0,1.38-0.05,2.14-0.14
	c0.76-0.1,1.6-0.14,2.52-0.14c1.16,0,2.15,0.1,2.97,0.31c0.81,0.21,1.47,0.52,1.99,0.93c0.51,0.41,0.88,0.92,1.12,1.52
	c0.24,0.6,0.36,1.28,0.36,2.04c0,0.89-0.14,1.66-0.43,2.3C139.25,88.83,138.84,89.36,138.32,89.79z"/>
<path class="st1" d="M104.93,47.45h-4.99c-0.77,0-1.4-0.63-1.4-1.4v-9.81c0-0.77,0.63-1.4,1.4-1.4h4.99c0.77,0,1.4,0.63,1.4,1.4
	v9.81C106.33,46.82,105.7,47.45,104.93,47.45z"/>
<path class="st1" d="M149.5,47.63h-4.99c-0.77,0-1.4-0.63-1.4-1.4v-9.81c0-0.77,0.63-1.4,1.4-1.4h4.99c0.77,0,1.4,0.63,1.4,1.4v9.81
	C150.9,47,150.27,47.63,149.5,47.63z"/>
</svg>
